<?xml version="1.0" encoding="UTF-8" standalone="no"?>
<!DOCTYPE svg PUBLIC "-//W3C//DTD SVG 1.1//EN" "http://www.w3.org/Graphics/SVG/1.1/DTD/svg11.dtd">
<svg width="100%" height="100%" viewBox="0 0 1075 294" version="1.1" xmlns="http://www.w3.org/2000/svg" xmlns:xlink="http://www.w3.org/1999/xlink" xml:space="preserve" xmlns:serif="http://www.serif.com/" style="fill-rule:evenodd;clip-rule:evenodd;stroke-linejoin:round;stroke-miterlimit:2;">
    <g transform="matrix(1,0,0,1,-558.899,-1018.61)">
        <g>
            <rect x="558.899" y="1018.61" width="1074.24" height="293.192" style="fill:rgb(231,232,233);fill-opacity:0;"/>
            <g transform="matrix(0.660997,0,0,0.660997,144.782,392.658)">
                <path d="M848.543,1030.24C848.543,1034.94 840.767,1046.51 825.217,1064.96L821.963,1064.96C819.552,1063.99 818.045,1060.44 817.442,1054.29C816.116,1041.87 811.837,1031.72 804.605,1023.82C797.372,1015.93 788.693,1011.98 778.567,1011.98C769.044,1011.98 760.847,1015.44 753.976,1022.36C747.105,1029.29 743.67,1037.57 743.67,1047.2C743.67,1054.18 745.852,1061.68 750.216,1069.68C754.58,1077.69 765.881,1090.39 784.119,1107.77C802.357,1125.15 814.067,1139 819.251,1149.31C824.434,1159.61 827.026,1169.41 827.026,1178.69C827.026,1200.15 817.714,1219.04 799.09,1235.38C780.466,1251.71 758.678,1259.88 733.725,1259.88C713.112,1259.88 696.116,1255.08 682.735,1245.5C669.355,1235.92 662.665,1228.11 662.665,1222.09C662.665,1218.71 666.341,1210.88 673.695,1198.58C681.048,1186.28 685.267,1180.14 686.352,1180.14C690.209,1180.14 692.951,1181.25 694.579,1183.48C696.206,1185.71 697.321,1189.84 697.924,1195.87C699.732,1214.67 704.282,1227.63 711.575,1234.74C718.868,1241.85 728.361,1245.41 740.054,1245.41C752.831,1245.41 763.981,1240.98 773.504,1232.13C783.027,1223.28 787.789,1213.01 787.789,1201.33C787.789,1195.31 785.94,1188.9 782.243,1182.09C778.546,1175.29 768.119,1163.71 750.962,1147.35C733.805,1131 722.575,1117.15 717.271,1105.82C711.967,1094.49 709.315,1083.46 709.315,1072.73C709.315,1054.05 716.367,1036.87 730.47,1021.2C744.574,1005.53 763.318,997.694 786.704,997.694C804.424,997.694 819.16,1001.76 830.913,1009.9C842.666,1018.04 848.543,1024.82 848.543,1030.24Z" style="fill:rgb(255,200,0);fill-rule:nonzero;"/>
                <path d="M1013.81,1215.39C1007.66,1220.82 1001.69,1224.65 995.907,1226.88C990.121,1229.11 985.54,1230.22 982.165,1230.22C973.486,1230.22 964.867,1226.85 956.308,1220.1C938.95,1246.38 919.06,1259.51 896.639,1259.51C882.656,1259.51 871.325,1254.27 862.646,1243.78C853.967,1233.3 849.627,1219.37 849.627,1202.02C849.627,1174.53 859.391,1150.93 878.919,1131.23C898.447,1111.52 921.773,1101.66 948.895,1101.66C959.141,1101.66 966.645,1102.78 971.406,1105.01C976.168,1107.24 979.091,1109.86 980.176,1112.87C981.261,1115.89 981.803,1119.68 981.803,1124.26C981.803,1146.81 975.655,1174.47 963.36,1207.26C969.508,1212.92 975.957,1215.76 982.707,1215.76C990.784,1215.76 1001.15,1208.7 1013.81,1194.6L1013.81,1215.39ZM954.138,1114.32C952.33,1113.6 949.739,1113.24 946.363,1113.24C930.693,1113.24 918.427,1121.43 909.568,1137.83C900.708,1154.22 896.278,1173.39 896.278,1195.33C896.278,1207.5 898.206,1216.96 902.064,1223.71C905.921,1230.46 911.285,1233.84 918.156,1233.84C926.715,1233.84 935.997,1225.94 946.002,1210.15C934.671,1195.93 929.005,1180.62 929.005,1164.22C929.005,1144.94 937.383,1128.3 954.138,1114.32Z" style="fill:rgb(255,200,0);fill-rule:nonzero;"/>
                <path d="M1148.88,1215.39C1133.45,1230.58 1119.31,1241.73 1106.48,1248.85C1093.64,1255.96 1080.23,1259.51 1066.24,1259.51C1050.57,1259.51 1037.64,1254.42 1027.46,1244.24C1017.27,1234.05 1012.18,1221.12 1012.18,1205.45C1012.18,1179.77 1021.55,1156.06 1040.3,1134.3C1059.04,1112.54 1079.32,1101.66 1101.14,1101.66C1111.87,1101.66 1120.61,1104.65 1127.36,1110.61C1134.11,1116.58 1137.49,1124.33 1137.49,1133.85C1137.49,1137.22 1136.85,1139.75 1135.59,1141.44C1134.32,1143.13 1131.94,1144.82 1128.44,1146.51L1107.47,1156.45C1104.94,1157.65 1103.07,1158.26 1101.86,1158.26C1100.18,1158.26 1099.33,1157.05 1099.33,1154.64C1099.33,1153.68 1099.69,1150.51 1100.42,1145.15C1101.14,1139.78 1101.5,1136.5 1101.5,1135.29C1101.5,1129.99 1100.39,1125.71 1098.16,1122.46C1095.93,1119.2 1092.94,1117.57 1089.21,1117.57C1080.41,1117.57 1072.36,1124.08 1065.07,1137.1C1057.78,1150.12 1054.13,1164.95 1054.13,1181.58C1054.13,1195.93 1057.56,1207.38 1064.43,1215.94C1071.31,1224.5 1080.47,1228.78 1091.92,1228.78C1101.68,1228.78 1110.88,1225.97 1119.49,1220.37C1128.11,1214.76 1137.91,1206.17 1148.88,1194.6L1148.88,1215.39Z" style="fill:rgb(255,200,0);fill-rule:nonzero;"/>
                <path d="M1284.13,1215.39C1268.7,1230.58 1254.56,1241.73 1241.72,1248.85C1228.89,1255.96 1215.48,1259.51 1201.49,1259.51C1185.82,1259.51 1172.89,1254.42 1162.71,1244.24C1152.52,1234.05 1147.43,1221.12 1147.43,1205.45C1147.43,1179.77 1156.8,1156.06 1175.55,1134.3C1194.29,1112.54 1214.57,1101.66 1236.39,1101.66C1247.12,1101.66 1255.86,1104.65 1262.61,1110.61C1269.36,1116.58 1272.73,1124.33 1272.73,1133.85C1272.73,1137.22 1272.1,1139.75 1270.84,1141.44C1269.57,1143.13 1267.19,1144.82 1263.69,1146.51L1242.72,1156.45C1240.19,1157.65 1238.32,1158.26 1237.11,1158.26C1235.43,1158.26 1234.58,1157.05 1234.58,1154.64C1234.58,1153.68 1234.94,1150.51 1235.67,1145.15C1236.39,1139.78 1236.75,1136.5 1236.75,1135.29C1236.75,1129.99 1235.64,1125.71 1233.41,1122.46C1231.18,1119.2 1228.19,1117.57 1224.46,1117.57C1215.66,1117.57 1207.61,1124.08 1200.32,1137.1C1193.03,1150.12 1189.38,1164.95 1189.38,1181.58C1189.38,1195.93 1192.81,1207.38 1199.68,1215.94C1206.56,1224.5 1215.72,1228.78 1227.17,1228.78C1236.93,1228.78 1246.12,1225.97 1254.74,1220.37C1263.36,1214.76 1273.16,1206.17 1284.13,1194.6L1284.13,1215.39Z" style="fill:rgb(255,200,0);fill-rule:nonzero;"/>
                <path d="M1419.38,1215.39C1404.07,1230.46 1390.32,1241.58 1378.15,1248.76C1365.97,1255.93 1352.53,1259.51 1337.83,1259.51C1321.43,1259.51 1308.2,1254.27 1298.14,1243.78C1288.07,1233.3 1283.04,1219.49 1283.04,1202.38C1283.04,1176.82 1291.9,1153.71 1309.62,1133.03C1327.34,1112.36 1346.99,1102.02 1368.57,1102.02C1379.78,1102.02 1388.76,1104.92 1395.51,1110.7C1402.26,1116.49 1405.63,1124.08 1405.63,1133.49C1405.63,1158.44 1379.11,1178.69 1326.08,1194.24C1330.9,1217.75 1343.49,1229.5 1363.87,1229.5C1371.82,1229.5 1379.41,1227.36 1386.65,1223.08C1393.88,1218.8 1404.79,1209.31 1419.38,1194.6L1419.38,1215.39ZM1324.63,1181.94C1355.49,1173.27 1370.92,1157.23 1370.92,1133.85C1370.92,1122.28 1366.7,1116.49 1358.26,1116.49C1350.3,1116.49 1342.71,1122.55 1335.48,1134.66C1328.24,1146.78 1324.63,1162.54 1324.63,1181.94Z" style="fill:rgb(255,200,0);fill-rule:nonzero;"/>
                <path d="M1554.62,1215.39C1524.37,1245.05 1501.04,1259.88 1484.65,1259.88C1477.3,1259.88 1471.09,1256.77 1466.03,1250.56C1460.96,1244.36 1458.43,1236.67 1458.43,1227.51C1458.43,1210.51 1467.53,1187.73 1485.73,1159.16C1476.81,1163.74 1467.05,1166.94 1456.44,1168.75C1448.61,1183.21 1436.31,1198.76 1419.56,1215.39L1415.4,1215.39L1415.4,1199.12C1424.8,1189.36 1433.3,1178.87 1440.89,1167.66C1430.53,1163.08 1425.34,1156.27 1425.34,1147.23C1425.34,1137.95 1428.51,1128.03 1434.84,1117.48C1441.16,1106.94 1449.87,1101.66 1460.96,1101.66C1470.37,1101.66 1475.07,1106.48 1475.07,1116.13C1475.07,1123.72 1472.35,1134.57 1466.93,1148.67C1486.94,1146.51 1504.42,1131.2 1519.37,1102.75L1535.82,1102.02L1519,1148.31C1512.01,1167.84 1507.49,1181.13 1505.44,1188.18C1503.39,1195.23 1502.37,1201.47 1502.37,1206.9C1502.37,1211.96 1503.54,1216 1505.89,1219.01C1508.25,1222.03 1511.41,1223.53 1515.39,1223.53C1519.73,1223.53 1523.89,1222.06 1527.86,1219.1C1531.84,1216.15 1540.76,1207.98 1554.62,1194.6L1554.62,1215.39Z" style="fill:rgb(255,200,0);fill-rule:nonzero;"/>
                <path d="M1802.88,1009.09C1799.39,1035 1788.36,1047.96 1769.79,1047.96C1763.29,1047.96 1750.81,1045.04 1732.37,1039.19C1713.92,1033.35 1698.01,1030.42 1684.63,1030.42C1667.39,1030.42 1652.48,1036.82 1639.88,1049.62C1627.28,1062.42 1620.98,1073.59 1620.98,1083.13C1620.98,1092.42 1626.77,1100.7 1638.34,1107.94C1643.04,1110.96 1645.39,1113.68 1645.39,1116.09C1645.39,1119.35 1642.05,1123.76 1635.36,1129.31C1628.67,1134.87 1623.64,1137.64 1620.26,1137.64C1614.6,1137.64 1609.29,1134.39 1604.35,1127.88C1599.41,1121.37 1596.93,1114.26 1596.93,1106.54C1596.93,1091.6 1603.02,1075.29 1615.2,1057.63C1627.37,1039.97 1643.28,1025.57 1662.93,1014.42C1682.58,1003.27 1703.19,997.694 1724.77,997.694C1739.36,997.694 1753.16,999.894 1766.18,1004.29C1779.2,1008.69 1787.33,1010.89 1790.59,1010.89C1793.48,1010.89 1795.95,1010.05 1798,1008.36L1799.09,1008L1802.88,1009.09ZM1735.08,1064.6C1739.78,1064.6 1742.13,1066.1 1742.13,1069.12L1737.79,1093.16L1736.89,1137.83C1736.28,1152.41 1734.05,1165.85 1730.2,1178.15C1726.7,1189.6 1721.82,1200.03 1715.55,1209.43C1709.88,1218.11 1703.07,1225.76 1695.12,1232.39C1687.77,1238.54 1679.69,1243.72 1670.89,1247.94C1662.69,1251.8 1654.07,1254.69 1645.03,1256.62C1636.71,1258.55 1628.34,1259.51 1619.9,1259.51C1600.25,1259.51 1584.85,1255.27 1573.7,1246.77C1562.55,1238.27 1556.98,1230.04 1556.98,1222.09C1556.98,1217.51 1561.1,1211.6 1569.36,1204.37C1577.62,1197.13 1583.86,1193.52 1588.08,1193.52C1593.26,1193.52 1595.85,1198.34 1595.85,1207.98C1595.85,1223.65 1598.41,1233.81 1603.54,1238.45C1608.66,1243.09 1615.5,1245.41 1624.06,1245.41C1637.92,1245.41 1650.07,1241.01 1660.49,1232.21C1670.92,1223.41 1677.94,1212.89 1681.56,1200.66C1685.17,1188.42 1687.04,1170.37 1687.16,1146.51C1687.28,1122.64 1689.06,1106.21 1692.5,1097.23C1695.93,1088.25 1702.23,1080.57 1711.39,1074.18C1720.55,1067.79 1728.45,1064.6 1735.08,1064.6Z" style="fill:rgb(255,200,0);fill-rule:nonzero;"/>
                <path d="M1873.94,1031.33C1873.94,1060.26 1863.28,1074.72 1841.94,1074.72C1831.57,1074.72 1822.71,1071.59 1815.36,1065.32C1822.35,1054.71 1827.78,1042.78 1831.63,1029.52C1841.16,1035.42 1848.81,1038.38 1854.6,1038.38C1861.11,1038.38 1867.56,1036.03 1873.94,1031.33ZM1877.56,1215.39C1849.35,1245.05 1828.26,1259.88 1814.28,1259.88C1806.56,1259.88 1800.05,1255.93 1794.75,1248.03C1789.44,1240.14 1786.79,1230.22 1786.79,1218.29C1786.79,1192.61 1795.47,1157.05 1812.83,1111.61L1858.76,1102.02L1860.92,1102.02L1842.84,1158.62C1835.37,1182.01 1831.63,1198.7 1831.63,1208.7C1831.63,1212.68 1832.51,1215.91 1834.26,1218.38C1836,1220.85 1838.2,1222.09 1840.85,1222.09C1845.56,1222.09 1850.29,1220.37 1855.05,1216.93C1859.81,1213.5 1867.31,1206.05 1877.56,1194.6L1877.56,1215.39Z" style="fill:rgb(255,200,0);fill-rule:nonzero;"/>
                <path d="M1964.05,1132.78C1972.73,1122.28 1980.92,1114.54 1988.63,1109.53C1996.34,1104.53 2004.89,1102.02 2014.28,1102.02C2026.45,1102.02 2036.36,1106.69 2044.01,1116.04C2051.66,1125.38 2055.48,1137.64 2055.48,1152.83C2055.48,1179.47 2046.29,1203.91 2027.9,1226.15C2009.52,1248.39 1989.53,1259.51 1967.95,1259.51C1961.92,1259.51 1957.16,1258.85 1953.66,1257.52C1950.17,1256.2 1945.59,1253.12 1939.92,1248.3C1931.25,1286.51 1925.65,1317.13 1923.12,1340.16L1877.2,1348.29C1885.76,1291.88 1896.67,1234.74 1909.93,1176.88C1894.01,1197.74 1883.29,1210.57 1877.74,1215.39L1873.58,1215.39L1873.58,1199.12C1896.49,1174.41 1915.35,1144.39 1930.18,1109.08L1971.05,1101.66L1964.05,1132.78ZM1943.14,1229.49C1949.42,1239.86 1956.35,1245.05 1963.95,1245.05C1976.14,1245.05 1986.9,1235.8 1996.25,1217.29C2005.6,1198.79 2010.28,1180.74 2010.28,1163.14C2010.28,1153.86 2008.38,1146.35 2004.59,1140.63C2000.79,1134.9 1995.88,1132.04 1989.85,1132.04C1985.15,1132.04 1980.22,1134.15 1975.04,1138.37C1969.85,1142.59 1965.94,1147.5 1963.29,1153.11C1960.64,1158.71 1957.62,1168.51 1954.25,1182.49L1943.14,1229.49Z" style="fill:rgb(255,200,0);fill-rule:nonzero;"/>
                <path d="M2141.73,1109.44C2150.05,1107.27 2158.43,1105.49 2166.86,1104.1C2175.3,1102.72 2180.36,1102.02 2182.05,1102.02C2183.26,1102.02 2183.86,1102.51 2183.86,1103.47C2183.86,1105.28 2183.38,1107.14 2182.41,1109.07C2180.49,1114.61 2179.52,1119.91 2179.52,1124.97C2179.54,1131.24 2183.16,1139.8 2190.39,1150.65C2197.61,1161.51 2201.22,1171.58 2201.22,1180.86C2201.22,1199.3 2192.39,1217.08 2174.73,1234.2C2157.07,1251.32 2138.78,1259.88 2119.85,1259.88C2111.66,1259.88 2104.18,1257.71 2097.43,1253.37C2090.68,1249.03 2087.3,1244.39 2087.3,1239.44C2087.3,1236.55 2090.65,1231.07 2097.34,1222.99C2104.03,1214.91 2108.82,1210.88 2111.72,1210.88C2115.57,1210.88 2119.01,1215.82 2122.02,1225.7C2125.03,1235.59 2130.22,1240.53 2137.57,1240.53C2144.93,1240.53 2151.83,1237.12 2158.28,1230.31C2164.72,1223.5 2167.95,1216.17 2167.95,1208.34C2167.96,1200.74 2163.86,1190.62 2155.66,1177.96C2147.46,1165.31 2142.03,1154.7 2139.38,1146.14C2125.4,1168.68 2107.68,1191.77 2086.22,1215.39L2082.06,1215.39L2082.06,1199.12C2111.6,1167.66 2131.48,1137.77 2141.73,1109.44Z" style="fill:rgb(255,200,0);fill-rule:nonzero;"/>
            </g>
        </g>
    </g>
</svg>
